HIERARCHY
ROOT Hips
{
	OFFSET 0.000000 0.000000 0.000000
	CHANNELS 6 Xposition Yposition Zposition Zrotation Yrotation Xrotation 
	JOINT LHipJoint
	{
		OFFSET 0.000000 0.000000 0.000000
		CHANNELS 3 Zrotation Yrotation Xrotation
		JOINT LeftUpLeg
		{
			OFFSET 1.363060 -1.794630 0.839290
			CHANNELS 3 Zrotation Yrotation Xrotation
			JOINT LeftLeg
			{
				OFFSET 2.448110 -6.726130 0.000000
				CHANNELS 3 Zrotation Yrotation Xrotation
				JOINT LeftFoot
				{
					OFFSET 2.562200 -7.039590 0.000000
					CHANNELS 3 Zrotation Yrotation Xrotation
					JOINT LeftToeBase
					{
						OFFSET 0.157640 -0.433110 2.322550
						CHANNELS 3 Zrotation Yrotation Xrotation
						End Site
						{
							OFFSET 0.000000 0.000000 0.000000
						}
					}
				}
			}
		}
	}
	JOINT RHipJoint
	{
		OFFSET 0.000000 0.000000 0.000000
		CHANNELS 3 Zrotation Yrotation Xrotation
		JOINT RightUpLeg
		{
			OFFSET -1.305520 -1.794630 0.839290
			CHANNELS 3 Zrotation Yrotation Xrotation
			JOINT RightLeg
			{
				OFFSET -2.542530 -6.985550 0.000000
				CHANNELS 3 Zrotation Yrotation Xrotation
				JOINT RightFoot
				{
					OFFSET -2.568260 -7.056230 0.000000
					CHANNELS 3 Zrotation Yrotation Xrotation
					JOINT RightToeBase
					{
						OFFSET -0.164730 -0.452590 2.363150
						CHANNELS 3 Zrotation Yrotation Xrotation
						End Site
						{
							OFFSET 0.000000 0.000000 0.000000
						}
					}
				}
			}
		}
	}
}
MOTION
Frames: 31
Frame Time: 0.008333
-10.177893 16.622636 -2.782360 9.340230 82.349717 24.725369 -10.227621 -0.162381 3.277559 -4.030218 -0.234509 -43.579684 -1.883450 0.556910 16.735601 0.308758 1.473426 8.525414 0.726200 0.000000 -39.281899 10.077257 -2.389267 -0.666584 6.155604 -1.302109 -12.498218 -0.395431 -2.941252 49.093421 -1.194905 -5.674325 -1.148452 -0.736700 0.000000 -64.010401
-9.971879 16.602696 -2.763642 14.205214 82.281929 29.486755 -10.240691 -0.159962 3.104821 -4.924824 -0.099500 -43.854234 -1.840611 0.718670 18.861406 0.376609 1.937642 8.733464 0.853100 -0.000000 -37.581800 10.267538 -2.364787 -0.647522 5.709880 -1.472827 -14.066659 -0.690199 -3.144628 52.475308 -1.556842 -7.901658 -0.965104 -1.020301 0.000000 -56.489200
-9.772873 16.587958 -2.744042 18.223390 82.154710 33.416965 -10.203653 -0.152499 2.921796 -5.752557 0.049105 -44.035912 -1.809559 0.852678 20.849675 0.441036 2.381818 8.497358 0.961800 0.000000 -36.378700 10.475921 -2.304785 -0.619864 5.363934 -1.517111 -15.636856 -0.944283 -3.331340 55.623948 -1.906765 -10.025639 -1.107835 -1.263400 0.000000 -48.804200
-9.580670 16.579158 -2.724615 21.263469 81.950534 36.378806 -10.139223 -0.136219 2.731169 -6.483753 0.221002 -44.102919 -1.791007 0.964715 22.673833 0.503497 2.797168 7.856038 1.040500 -0.000000 -35.732300 10.678367 -2.209982 -0.585491 5.121275 -1.422484 -17.179108 -1.164276 -3.496886 58.475194 -2.224692 -11.934092 -1.487061 -1.436201 -0.000000 -41.953700
-9.394828 16.576750 -2.706247 23.281396 81.668053 38.322450 -10.070026 -0.112995 2.534528 -7.095169 0.425887 -44.038147 -1.784493 1.058722 24.311071 0.565227 3.177319 6.881966 1.082000 -0.000000 -35.632500 10.853433 -2.087540 -0.545036 4.986728 -1.186504 -18.671322 -1.353222 -3.638499 60.988619 -2.493571 -13.528419 -2.029670 -1.521499 -0.000000 -36.464500
-9.214681 16.580906 -2.689207 24.387830 81.316319 39.352558 -10.009861 -0.086048 2.333610 -7.580759 0.660591 -43.822782 -1.788697 1.135436 25.733545 0.627706 3.529475 5.674635 1.087700 0.000000 -36.015600 10.991123 -1.947385 -0.500771 4.949241 -0.830241 -20.101724 -1.509561 -3.757126 63.144833 -2.698659 -14.720854 -2.715105 -1.505100 0.000000 -32.161500
-9.039401 16.591532 -2.673749 24.677272 80.906971 39.559464 -9.967957 -0.057529 2.130496 -7.932850 0.928858 -43.450993 -1.800640 1.196044 26.924524 0.691350 3.858326 4.344173 1.062500 -0.000000 -36.782300 11.085728 -1.798060 -0.453225 5.009240 -0.374415 -21.459843 -1.631371 -3.852262 64.925261 -2.831409 -15.461962 -3.507364 -1.391900 -0.000000 -28.995500
-8.868085 16.608287 -2.659578 24.315678 80.452618 39.106881 -9.946229 -0.027864 1.928175 -8.157459 1.226993 -42.923609 -1.816985 1.240857 27.871525 0.756215 4.175314 3.001006 1.015800 -0.000001 -37.797800 11.139231 -1.646438 -0.403554 5.157013 0.148908 -22.742764 -1.715030 -3.925082 66.322361 -2.887446 -15.726588 -4.395681 -1.192900 -0.000001 -26.631400
-8.699924 16.630618 -2.645937 23.532544 79.964965 38.221750 -9.940247 0.004221 1.728918 -8.279057 1.544857 -42.243043 -1.834792 1.269484 28.567262 0.821883 4.495552 1.746081 0.959800 0.000000 -38.904701 11.160344 -1.497320 -0.353193 5.367021 0.700301 -23.950157 -1.757441 -3.978272 67.332707 -2.867676 -15.522928 -5.352372 -0.933601 0.000000 -24.854799
-8.534067 16.657806 -2.632131 22.492675 79.456623 37.072309 -9.946543 0.040078 1.536332 -8.318296 1.877845 -41.430521 -1.851006 1.283054 29.020873 0.886940 4.825399 0.656696 0.904600 0.000000 -39.951600 11.155229 -1.353550 -0.301344 5.624951 1.248507 -25.088877 -1.757379 -4.012913 67.958235 -2.779812 -14.901082 -6.331029 -0.651000 0.000000 -23.574600
-8.369884 16.689060 -2.617090 21.384861 78.939751 35.848859 -9.959592 0.081292 1.352309 -8.308219 2.219790 -40.506311 -1.864098 1.282331 29.246260 0.949542 5.168058 -0.213718 0.859400 0.000001 -40.820700 11.132229 -1.216786 -0.248096 5.905296 1.760009 -26.166753 -1.715716 -4.031344 68.209470 -2.636699 -13.941224 -7.281119 -0.381500 0.000000 -22.778900
-8.206884 16.723486 -2.599846 20.351305 78.426254 34.698354 -9.975184 0.129210 1.179014 -8.280185 2.567980 -39.498936 -1.873765 1.268671 29.266459 1.007469 5.518667 -0.840857 0.830400 0.000000 -41.449800 11.097537 -1.087443 -0.192596 6.187049 2.207257 -27.198796 -1.635899 -4.035315 68.107069 -2.456315 -12.751376 -8.160780 -0.152400 -0.000000 -22.466200
-8.044765 16.760280 -2.579569 19.492045 77.925758 33.724338 -9.990211 0.184946 1.017246 -8.262839 2.924714 -38.436337 -1.881292 1.243721 29.108154 1.058154 5.864350 -1.226707 0.820400 -0.000000 -41.836500 11.055533 -0.965031 -0.134445 6.453470 2.569270 -28.198920 -1.523365 -4.026211 67.679329 -2.259683 -11.454826 -8.949429 0.024400 0.000000 -22.588099
-7.883388 16.798635 -2.555581 18.858544 77.445619 32.982664 -10.002650 0.249270 0.867239 -8.277419 3.296483 -37.347024 -1.889049 1.209406 28.801836 1.099151 6.187088 -1.396629 0.829200 -0.000000 -42.025700 11.008643 -0.848453 -0.072981 6.695540 2.833572 -29.182532 -1.384180 -4.005066 66.962370 -2.068357 -10.175037 -9.661576 0.153000 -0.000000 -22.948300
-7.722817 16.837863 -2.527527 18.469025 76.988201 32.492763 -10.010744 0.322524 0.726969 -8.338477 3.691947 -36.249587 -1.900168 1.167441 28.374825 1.128448 6.468137 -1.391367 0.853100 0.000001 -42.091300 10.958367 -0.736002 -0.008575 6.908425 2.996177 -30.156851 -1.225151 -3.972380 65.989112 -1.901796 -9.024393 -10.312631 0.243200 -0.000001 -23.498500
-7.563057 16.877352 -2.495344 18.293755 76.553782 32.230342 -10.013855 0.404525 0.596363 -8.448555 4.119465 -35.167866 -1.917422 1.119666 27.857791 1.144735 6.689321 -1.262434 0.886100 0.000001 -42.115700 10.903881 -0.626700 0.060605 7.098956 3.063410 -31.133346 -1.050078 -3.928501 64.797583 -1.775377 -8.084934 -10.972579 0.315700 -0.000000 -23.772299
-7.404353 16.916626 -2.459162 18.301581 76.136743 32.164164 -10.010738 0.494583 0.472231 -8.607276 4.583748 -34.106583 -1.943164 1.067134 27.270945 1.148082 6.842399 -1.059974 0.921601 0.000000 -42.174700 10.844920 -0.519094 0.134333 7.270585 3.046957 -32.108663 -0.863345 -3.873103 63.409611 -1.699320 -7.410024 -11.667220 0.383600 -0.000001 -23.690500
-7.246779 16.955238 -2.419527 18.418463 75.731799 32.224084 -10.002330 0.591130 0.354019 -8.800368 5.088459 -33.077056 -1.978221 1.011190 26.637358 1.139357 6.922599 -0.832227 0.952700 0.000000 -42.328100 10.778128 -0.413315 0.215201 7.440422 2.968499 -33.080485 -0.666118 -3.804980 61.843640 -1.679203 -7.015422 -12.446993 0.462900 0.000000 -22.904700
-7.090558 16.992881 -2.376866 18.601975 75.329281 32.366491 -9.988040 0.692562 0.238850 -9.018847 5.627186 -32.070550 -2.022515 0.952034 25.965456 1.121216 6.941141 -0.613707 0.975800 0.000001 -42.611700 10.702559 -0.309029 0.302736 7.613442 2.846233 -34.033850 -0.460315 -3.722592 60.100677 -1.714858 -6.883952 -13.309284 0.561599 -0.000000 -21.414900
-6.935678 17.029207 -2.331933 18.774804 74.921682 32.516445 -9.970478 0.796492 0.126706 -9.241222 6.196113 -31.089130 -2.074414 0.890566 25.268554 1.096526 6.909783 -0.431527 0.988400 -0.000000 -43.037500 10.613850 -0.208094 0.400193 7.808807 2.707691 -34.954752 -0.247266 -3.622629 58.173062 -1.802526 -6.976170 -14.234219 0.684000 0.000000 -19.208500
-6.782237 17.063957 -2.285182 18.908290 74.500409 32.642703 -9.950064 0.901095 0.015657 -9.457386 6.781511 -30.118244 -2.131772 0.826690 24.546053 1.069275 6.853189 -0.295689 0.992000 0.000001 -43.591100 10.511628 -0.111975 0.506788 8.029271 2.568745 -35.820686 -0.028621 -3.502382 56.045455 -1.932379 -7.227675 -15.172616 0.826500 0.000000 -16.456800
-6.630210 17.096814 -2.237022 18.971990 74.059121 32.713059 -9.928524 1.004659 -0.095345 -9.655503 7.372745 -29.148417 -2.191891 0.760849 23.799440 1.043032 6.794519 -0.206994 0.989699 0.000000 -44.235700 10.395206 -0.023558 0.622896 8.281586 2.445097 -36.609201 0.193518 -3.358434 53.699034 -2.090814 -7.567768 -16.054448 0.976800 -0.000000 -13.398899
-6.479492 17.127425 -2.187707 18.948842 73.594301 32.707528 -9.908062 1.106197 -0.206508 -9.826087 7.961697 -28.173543 -2.251969 0.693858 23.031855 1.020590 6.753385 -0.157522 0.984900 0.000000 -44.919100 10.265154 0.052935 0.750361 8.570449 2.350214 -37.298164 0.415339 -3.187118 51.111650 -2.260454 -7.929936 -16.773883 1.111200 0.000000 -10.620700
-6.329994 17.155415 -2.137272 18.847115 73.103266 32.630256 -9.889466 1.205261 -0.320127 -9.967931 8.542644 -27.186209 -2.309969 0.626836 22.245422 1.003845 6.745480 -0.132807 0.981400 0.000000 -45.582900 10.124804 0.114452 0.888078 8.893458 2.287068 -37.867495 0.635037 -2.985789 48.269401 -2.421832 -8.248733 -17.251071 1.204300 -0.000000 -8.534000
-6.181640 17.180347 -2.085466 18.690837 72.586871 32.497759 -9.872917 1.302637 -0.438389 -10.084256 9.115536 -26.179763 -2.364445 0.561155 21.444938 0.993249 6.777895 -0.113939 0.982500 -0.000000 -46.177200 9.979321 0.158350 1.035406 9.244828 2.251673 -38.299572 0.853197 -2.752268 45.168121 -2.556533 -8.468259 -17.443270 1.236299 0.000000 -7.335700
-6.034305 17.201769 -2.031978 18.507090 72.048470 32.331081 -9.858366 1.399560 -0.563387 -10.181034 9.685628 -25.155372 -2.414858 0.498696 20.641365 0.987806 6.847108 -0.082835 0.989600 0.000000 -46.672900 9.834445 0.183578 1.192637 9.617303 2.237112 -38.585859 1.071515 -2.484357 41.812459 -2.649453 -8.549787 -17.334397 1.196100 0.000000 -7.116600
-5.888063 17.219270 -1.976348 18.339247 71.490394 32.163378 -9.843380 1.497462 -0.700962 -10.270376 10.262212 -24.105038 -2.461880 0.441254 19.842000 0.985488 6.943658 -0.020903 1.003900 0.000000 -47.069500 9.699697 0.192826 1.355866 9.993889 2.225760 -38.718258 1.291272 -2.181018 38.215353 -2.687590 -8.468090 -16.918137 1.080700 0.000000 -8.025800
-5.742747 17.232402 -1.918167 18.214562 70.919552 32.017643 -9.827165 1.598334 -0.851446 -10.360416 10.856052 -23.040252 -2.506452 0.390765 19.066811 0.983400 7.048502 0.082181 1.024300 -0.000001 -47.395400 9.581529 0.189184 1.527138 10.363863 2.206116 -38.707144 1.514412 -1.840854 34.404518 -2.665538 -8.216876 -16.236910 0.903500 0.000000 -9.857800
-5.598396 17.240836 -1.857111 18.166385 70.340548 31.919041 -9.807018 1.703980 -1.017336 -10.461757 11.477035 -21.961425 -2.550050 0.348554 18.329906 0.978677 7.142994 0.233495 1.049400 -0.000001 -47.698400 9.488667 0.179361 1.703656 10.709917 2.158530 -38.563414 1.740609 -1.464698 30.420295 -2.581097 -7.799020 -15.339563 0.684900 0.000000 -12.438200
-5.455067 17.244292 -1.792860 18.223040 69.756899 31.887036 -9.779969 1.816389 -1.198928 -10.583664 12.130164 -20.867403 -2.593927 0.315396 17.644861 0.969197 7.212045 0.433235 1.077200 -0.000001 -48.033600 9.429741 0.171137 1.881178 11.015451 2.061437 -38.304139 1.965535 -1.056553 26.315731 -2.435694 -7.229908 -14.260743 0.445100 -0.000000 -15.790800
-5.312701 17.242616 -1.725348 18.394550 69.171534 31.926371 -9.743492 1.936466 -1.394371 -10.729307 12.815010 -19.760309 -2.638634 0.291606 17.026345 0.953776 7.244580 0.673313 1.105100 0.000000 -48.451700 9.409341 0.173237 2.053214 11.273493 1.896088 -37.955139 2.185101 -0.623493 22.167600 -2.237737 -6.525957 -13.090796 0.213900 0.000000 -19.447700
